<svg width="166" height="166" viewBox="0 0 166 166" fill="none" xmlns="http://www.w3.org/2000/svg">
<path d="M128.887 126.429C122.402 126.429 116.304 123.904 111.719 119.321L86.9306 94.533C85.191 92.7879 82.1571 92.7934 80.4174 94.533L55.5385 119.412C50.953 123.994 44.855 126.519 38.3705 126.519H33.4858L64.8803 157.914C74.6855 167.719 90.5825 167.719 100.388 157.914L131.873 126.429H128.887Z" fill="#27C2A1"/>
<path d="M38.3702 38.7471C44.8547 38.7471 50.9528 41.2726 55.5374 45.8557L80.4164 70.7385C82.2081 72.5303 85.1339 72.538 86.9303 70.7362L111.718 45.9459C116.304 41.3628 122.402 38.838 128.886 38.838H131.872L100.387 7.35339C90.5822 -2.45175 74.6852 -2.45175 64.88 7.35339L33.4863 38.7471H38.3702Z" fill="#27C2A1"/>
<path d="M157.914 64.8808L138.888 45.8543C138.469 46.0222 138.015 46.1272 137.537 46.1272H128.887C124.414 46.1272 120.036 47.9407 116.876 51.1028L92.0874 75.8916C89.7686 78.2111 86.7207 79.3725 83.6752 79.3725C80.6273 79.3725 77.5818 78.2111 75.2622 75.8939L50.3809 51.0126C47.2204 47.8505 42.8433 46.037 38.3705 46.037H27.7337C27.2805 46.037 26.8561 45.9297 26.4558 45.7789L7.35385 64.8808C-2.45128 74.6852 -2.45128 90.5822 7.35385 100.388L26.455 119.489C26.8553 119.338 27.2805 119.231 27.7337 119.231H38.3705C42.8433 119.231 47.2204 117.418 50.3809 114.256L75.2599 89.3766C79.7567 84.8837 87.5952 84.8813 92.0874 89.3789L116.876 114.165C120.036 117.328 124.414 119.141 128.887 119.141H137.537C138.016 119.141 138.469 119.245 138.888 119.413L157.914 100.388C167.719 90.5822 167.719 74.6852 157.914 64.8808Z" fill="#27C2A1"/>
</svg>
